<?xml version="1.0" standalone="no"?>
<!DOCTYPE svg PUBLIC "-//W3C//DTD SVG 20010904//EN"
 "http://www.w3.org/TR/2001/REC-SVG-20010904/DTD/svg10.dtd">
<svg version="1.0" xmlns="http://www.w3.org/2000/svg"
 width="700.000000pt" height="700.000000pt" viewBox="0 0 700.000000 700.000000"
 preserveAspectRatio="xMidYMid meet">
<metadata>
Created by potrace 1.14, written by Peter Selinger 2001-2017
</metadata>
<g transform="translate(0.000000,700.000000) scale(0.100000,-0.100000)"
fill="#000000" stroke="none">
<path d="M0 6526 l0 -474 118 44 c390 146 848 247 1287 284 155 13 616 13 770
0 1019 -86 1940 -462 2730 -1114 152 -125 482 -456 607 -606 508 -616 849
-1305 1018 -2061 122 -550 148 -1131 74 -1697 -32 -248 -104 -577 -173 -793
-17 -53 -31 -99 -31 -103 0 -3 135 -6 300 -6 l300 0 0 3500 0 3500 -3500 0
-3500 0 0 -474z"/>
<path d="M1510 5870 c-368 -26 -739 -99 -1085 -215 -144 -48 -359 -130 -407
-156 -17 -9 -18 -113 -18 -2754 l0 -2745 2924 0 2924 0 32 87 c256 709 318
1540 169 2287 -120 604 -376 1196 -727 1686 -312 435 -694 803 -1134 1093
-211 139 -309 195 -520 296 -460 222 -915 351 -1435 406 -172 19 -557 26 -723
15z m-85 -1491 c190 -31 374 -128 516 -269 145 -144 228 -305 281 -545 21 -95
18 -429 -5 -535 -102 -473 -415 -762 -877 -811 -373 -39 -740 119 -930 400
-166 246 -226 594 -164 954 36 210 126 388 269 533 232 234 558 332 910 273z
m2933 -42 c-2 -8 -604 -894 -1338 -1970 l-1335 -1956 -402 -1 c-222 0 -403 3
-403 6 0 3 604 890 1341 1970 l1341 1964 400 0 c328 0 399 -2 396 -13z m-212
-1807 c234 -29 407 -113 569 -275 149 -149 236 -310 282 -525 27 -129 25 -460
-4 -586 -93 -399 -345 -664 -723 -760 -61 -15 -111 -19 -265 -19 -176 0 -197
2 -288 27 -375 105 -618 384 -694 799 -23 127 -23 389 1 517 20 113 71 258
121 347 191 342 582 528 1001 475z"/>
<path d="M1112 3829 c-146 -72 -201 -198 -209 -479 -8 -265 27 -412 121 -505
65 -65 114 -88 197 -93 121 -7 218 59 279 191 80 171 80 553 1 723 -81 174
-237 240 -389 163z"/>
<path d="M3892 1974 c-145 -72 -211 -234 -212 -520 0 -292 66 -458 212 -536
33 -18 60 -23 118 -23 65 0 82 4 129 30 148 82 208 257 198 570 -8 224 -36
320 -120 413 -86 93 -218 120 -325 66z"/>
</g>
</svg>
